<?xml version="1.0" encoding="UTF-8" standalone="no"?>
<!DOCTYPE svg PUBLIC "-//W3C//DTD SVG 1.1//EN"
 "http://www.w3.org/Graphics/SVG/1.1/DTD/svg11.dtd">
<!-- Generated by graphviz version 2.28.0 (20130111.0109)
 -->
<!-- Title: G Pages: 1 -->
<svg width="324pt" height="333pt"
 viewBox="0.00 0.00 324.00 333.00" xmlns="http://www.w3.org/2000/svg" xmlns:xlink="http://www.w3.org/1999/xlink">
<g id="graph1" class="graph" transform="scale(1 1) rotate(0) translate(4 329)">
<title>G</title>
<polygon fill="white" stroke="white" points="-4,5 -4,-329 321,-329 321,5 -4,5"/>
<g id="graph2" class="cluster"><title>cluster_Global</title>
<polyline fill="none" stroke="gray" points="20,-8 296,-8 "/>
<path fill="none" stroke="gray" d="M296,-8C302,-8 308,-14 308,-20"/>
<polyline fill="none" stroke="gray" points="308,-20 308,-305 "/>
<path fill="none" stroke="gray" d="M308,-305C308,-311 302,-317 296,-317"/>
<polyline fill="none" stroke="gray" points="296,-317 20,-317 "/>
<path fill="none" stroke="gray" d="M20,-317C14,-317 8,-311 8,-305"/>
<polyline fill="none" stroke="gray" points="8,-305 8,-20 "/>
<path fill="none" stroke="gray" d="M8,-20C8,-14 14,-8 20,-8"/>
<text text-anchor="middle" x="158" y="-302" font-family="Times,serif" font-size="11.00" fill="gray">\</text>
</g>
<g id="graph3" class="cluster"><title>cluster_\stojg</title>
<polyline fill="none" stroke="gray" points="28,-16 288,-16 "/>
<path fill="none" stroke="gray" d="M288,-16C294,-16 300,-22 300,-28"/>
<polyline fill="none" stroke="gray" points="300,-28 300,-276 "/>
<path fill="none" stroke="gray" d="M300,-276C300,-282 294,-288 288,-288"/>
<polyline fill="none" stroke="gray" points="288,-288 28,-288 "/>
<path fill="none" stroke="gray" d="M28,-288C22,-288 16,-282 16,-276"/>
<polyline fill="none" stroke="gray" points="16,-276 16,-28 "/>
<path fill="none" stroke="gray" d="M16,-28C16,-22 22,-16 28,-16"/>
<text text-anchor="middle" x="158" y="-273" font-family="Times,serif" font-size="11.00" fill="gray">stojg</text>
</g>
<g id="graph4" class="cluster"><title>cluster_\stojg\crop</title>
<polyline fill="none" stroke="gray" points="36,-24 280,-24 "/>
<path fill="none" stroke="gray" d="M280,-24C286,-24 292,-30 292,-36"/>
<polyline fill="none" stroke="gray" points="292,-36 292,-247 "/>
<path fill="none" stroke="gray" d="M292,-247C292,-253 286,-259 280,-259"/>
<polyline fill="none" stroke="gray" points="280,-259 36,-259 "/>
<path fill="none" stroke="gray" d="M36,-259C30,-259 24,-253 24,-247"/>
<polyline fill="none" stroke="gray" points="24,-247 24,-36 "/>
<path fill="none" stroke="gray" d="M24,-36C24,-30 30,-24 36,-24"/>
<text text-anchor="middle" x="158" y="-244" font-family="Times,serif" font-size="11.00" fill="gray">crop</text>
</g>
<!-- \\stojg\\crop\\CropFace -->
<g id="node4" class="node"><title>\\stojg\\crop\\CropFace</title>
<polygon fill="none" stroke="black" points="270.309,-230 201.691,-230 201.691,-194 270.309,-194 270.309,-230"/>
<text text-anchor="middle" x="236" y="-207.6" font-family="Courier,monospace" font-size="11.00">CropFace</text>
</g>
<!-- \\stojg\\crop\\Crop -->
<g id="node6" class="node"><title>\\stojg\\crop\\Crop</title>
<polygon fill="none" stroke="black" points="115.5,-149 32.5,-149 32.5,-113 115.5,-113 115.5,-149"/>
<text text-anchor="start" x="41" y="-132.5" font-family="Courier,monospace" font-size="11.00">«abstract»</text>
<text text-anchor="start" x="61" y="-121.5" font-family="Courier,monospace" font-size="11.00">Crop</text>
</g>
<!-- \\stojg\\crop\\CropFace&#45;&gt;\\stojg\\crop\\Crop -->
<g id="edge5" class="edge"><title>\\stojg\\crop\\CropFace&#45;&gt;\\stojg\\crop\\Crop</title>
<path fill="none" stroke="black" d="M201.459,-195.02C177.791,-183.038 145.821,-166.853 119.948,-153.755"/>
<polygon fill="none" stroke="black" points="121.222,-150.477 110.719,-149.083 118.06,-156.722 121.222,-150.477"/>
</g>
<!-- \\stojg\\crop\\CropCenter -->
<g id="node5" class="node"><title>\\stojg\\crop\\CropCenter</title>
<polygon fill="none" stroke="black" points="277.011,-176 194.989,-176 194.989,-140 277.011,-140 277.011,-176"/>
<text text-anchor="middle" x="236" y="-153.6" font-family="Courier,monospace" font-size="11.00">CropCenter</text>
</g>
<!-- \\stojg\\crop\\CropCenter&#45;&gt;\\stojg\\crop\\Crop -->
<g id="edge7" class="edge"><title>\\stojg\\crop\\CropCenter&#45;&gt;\\stojg\\crop\\Crop</title>
<path fill="none" stroke="black" d="M194.625,-151.187C173.672,-147.651 147.867,-143.296 125.594,-139.538"/>
<polygon fill="none" stroke="black" points="126.083,-136.071 115.64,-137.858 124.918,-142.973 126.083,-136.071"/>
</g>
<!-- \\stojg\\crop\\CropBalanced -->
<g id="node7" class="node"><title>\\stojg\\crop\\CropBalanced</title>
<polygon fill="none" stroke="black" points="283.713,-122 188.287,-122 188.287,-86 283.713,-86 283.713,-122"/>
<text text-anchor="middle" x="236" y="-99.6" font-family="Courier,monospace" font-size="11.00">CropBalanced</text>
</g>
<!-- \\stojg\\crop\\CropBalanced&#45;&gt;\\stojg\\crop\\Crop -->
<g id="edge9" class="edge"><title>\\stojg\\crop\\CropBalanced&#45;&gt;\\stojg\\crop\\Crop</title>
<path fill="none" stroke="black" d="M188.291,-111.882C168.564,-115.211 145.551,-119.095 125.438,-122.489"/>
<polygon fill="none" stroke="black" points="124.8,-119.047 115.522,-124.162 125.965,-125.949 124.8,-119.047"/>
</g>
<!-- \\stojg\\crop\\CropEntropy -->
<g id="node8" class="node"><title>\\stojg\\crop\\CropEntropy</title>
<polygon fill="none" stroke="black" points="280.113,-68 191.887,-68 191.887,-32 280.113,-32 280.113,-68"/>
<text text-anchor="middle" x="236" y="-45.6" font-family="Courier,monospace" font-size="11.00">CropEntropy</text>
</g>
<!-- \\stojg\\crop\\CropEntropy&#45;&gt;\\stojg\\crop\\Crop -->
<g id="edge11" class="edge"><title>\\stojg\\crop\\CropEntropy&#45;&gt;\\stojg\\crop\\Crop</title>
<path fill="none" stroke="black" d="M199.093,-68.178C175.624,-80.059 144.793,-95.6671 119.734,-108.353"/>
<polygon fill="none" stroke="black" points="118.128,-105.243 110.787,-112.883 121.29,-111.489 118.128,-105.243"/>
</g>
</g>
</svg>
