<?xml version="1.0" encoding="UTF-8" standalone="no"?>
<!DOCTYPE svg PUBLIC "-//W3C//DTD SVG 1.1//EN"
 "http://www.w3.org/Graphics/SVG/1.1/DTD/svg11.dtd">
<!-- Generated by graphviz version 2.30.1 (20130718.0307)
 -->
<!-- Title: G Pages: 1 -->
<svg width="682pt" height="359pt"
 viewBox="0.00 0.00 682.00 359.00" xmlns="http://www.w3.org/2000/svg" xmlns:xlink="http://www.w3.org/1999/xlink">
<g id="graph0" class="graph" transform="scale(1 1) rotate(0) translate(4 355)">
<title>G</title>
<polygon fill="white" stroke="white" points="-4,5 -4,-355 679,-355 679,5 -4,5"/>
<g id="clust1" class="cluster"><title>cluster_Global</title>
<path fill="none" stroke="gray" d="M20,-44C20,-44 654,-44 654,-44 660,-44 666,-50 666,-56 666,-56 666,-331 666,-331 666,-337 660,-343 654,-343 654,-343 20,-343 20,-343 14,-343 8,-337 8,-331 8,-331 8,-56 8,-56 8,-50 14,-44 20,-44"/>
<text text-anchor="middle" x="337" y="-328" font-family="Times,serif" font-size="11.00" fill="gray">\</text>
</g>
<g id="clust2" class="cluster"><title>cluster_\stojg</title>
<path fill="none" stroke="gray" d="M28,-96C28,-96 636,-96 636,-96 642,-96 648,-102 648,-108 648,-108 648,-302 648,-302 648,-308 642,-314 636,-314 636,-314 28,-314 28,-314 22,-314 16,-308 16,-302 16,-302 16,-108 16,-108 16,-102 22,-96 28,-96"/>
<text text-anchor="middle" x="332" y="-299" font-family="Times,serif" font-size="11.00" fill="gray">stojg</text>
</g>
<g id="clust3" class="cluster"><title>cluster_\stojg\crop</title>
<path fill="none" stroke="gray" d="M36,-104C36,-104 628,-104 628,-104 634,-104 640,-110 640,-116 640,-116 640,-273 640,-273 640,-279 634,-285 628,-285 628,-285 36,-285 36,-285 30,-285 24,-279 24,-273 24,-273 24,-116 24,-116 24,-110 30,-104 36,-104"/>
<text text-anchor="middle" x="332" y="-270" font-family="Times,serif" font-size="11.00" fill="gray">crop</text>
</g>
<!-- \\stojg\\crop\\CropFace -->
<g id="node1" class="node"><title>\\stojg\\crop\\CropFace</title>
<polygon fill="none" stroke="black" points="631.309,-256 562.691,-256 562.691,-220 631.309,-220 631.309,-256"/>
<text text-anchor="middle" x="597" y="-233.6" font-family="Courier,monospace" font-size="11.00">CropFace</text>
</g>
<!-- \\stojg\\crop\\CropEntropy -->
<g id="node5" class="node"><title>\\stojg\\crop\\CropEntropy</title>
<polygon fill="none" stroke="black" points="370.113,-256 281.887,-256 281.887,-220 370.113,-220 370.113,-256"/>
<text text-anchor="middle" x="326" y="-233.6" font-family="Courier,monospace" font-size="11.00">CropEntropy</text>
</g>
<!-- \\stojg\\crop\\CropFace&#45;&gt;\\stojg\\crop\\CropEntropy -->
<g id="edge1" class="edge"><title>\\stojg\\crop\\CropFace&#45;&gt;\\stojg\\crop\\CropEntropy</title>
<path fill="none" stroke="black" d="M562.475,-238C516.827,-238 434.611,-238 380.417,-238"/>
<polygon fill="none" stroke="black" points="380.305,-234.5 370.305,-238 380.305,-241.5 380.305,-234.5"/>
</g>
<!-- \\stojg\\crop\\CropCenter -->
<g id="node2" class="node"><title>\\stojg\\crop\\CropCenter</title>
<polygon fill="none" stroke="black" points="367.011,-202 284.989,-202 284.989,-166 367.011,-166 367.011,-202"/>
<text text-anchor="middle" x="326" y="-179.6" font-family="Courier,monospace" font-size="11.00">CropCenter</text>
</g>
<!-- \\stojg\\crop\\Crop -->
<g id="node3" class="node"><title>\\stojg\\crop\\Crop</title>
<polygon fill="none" stroke="black" points="115.5,-202 32.5,-202 32.5,-166 115.5,-166 115.5,-202"/>
<text text-anchor="start" x="41" y="-185.5" font-family="Courier,monospace" font-size="11.00">«abstract»</text>
<text text-anchor="start" x="61" y="-174.5" font-family="Courier,monospace" font-size="11.00">Crop</text>
</g>
<!-- \\stojg\\crop\\CropCenter&#45;&gt;\\stojg\\crop\\Crop -->
<g id="edge2" class="edge"><title>\\stojg\\crop\\CropCenter&#45;&gt;\\stojg\\crop\\Crop</title>
<path fill="none" stroke="black" d="M284.833,-184C241.717,-184 173.106,-184 126.158,-184"/>
<polygon fill="none" stroke="black" points="125.898,-180.5 115.898,-184 125.898,-187.5 125.898,-180.5"/>
</g>
<!-- \\stojg\\crop\\CropBalanced -->
<g id="node4" class="node"><title>\\stojg\\crop\\CropBalanced</title>
<polygon fill="none" stroke="black" points="373.713,-148 278.287,-148 278.287,-112 373.713,-112 373.713,-148"/>
<text text-anchor="middle" x="326" y="-125.6" font-family="Courier,monospace" font-size="11.00">CropBalanced</text>
</g>
<!-- \\stojg\\crop\\CropBalanced&#45;&gt;\\stojg\\crop\\Crop -->
<g id="edge3" class="edge"><title>\\stojg\\crop\\CropBalanced&#45;&gt;\\stojg\\crop\\Crop</title>
<path fill="none" stroke="black" d="M278.298,-138.725C251.766,-143.801 217.963,-150.47 188,-157 167.525,-161.462 145.059,-166.749 125.589,-171.457"/>
<polygon fill="none" stroke="black" points="124.598,-168.096 115.707,-173.858 126.251,-174.898 124.598,-168.096"/>
</g>
<!-- \\stojg\\crop\\CropEntropy&#45;&gt;\\stojg\\crop\\Crop -->
<g id="edge4" class="edge"><title>\\stojg\\crop\\CropEntropy&#45;&gt;\\stojg\\crop\\Crop</title>
<path fill="none" stroke="black" d="M281.717,-229.928C254.713,-224.779 219.266,-217.813 188,-211 167.525,-206.538 145.059,-201.251 125.589,-196.543"/>
<polygon fill="none" stroke="black" points="126.251,-193.102 115.707,-194.142 124.598,-199.904 126.251,-193.102"/>
</g>
<!-- \\ClassEntropyTest -->
<g id="node6" class="node"><title>\\ClassEntropyTest</title>
<polygon fill="none" stroke="black" points="657.618,-88 536.382,-88 536.382,-52 657.618,-52 657.618,-88"/>
<text text-anchor="middle" x="597" y="-65.6" font-family="Courier,monospace" font-size="11.00">ClassEntropyTest</text>
</g>
<!-- \\PHPUnit_Framework_TestCase -->
<g id="node7" class="node"><title>\\PHPUnit_Framework_TestCase</title>
<ellipse fill="none" stroke="black" cx="326" cy="-18" rx="137.502" ry="18"/>
<text text-anchor="middle" x="326" y="-12.4" font-family="Times,serif" font-size="14.00" fill="gray">\PHPUnit_Framework_TestCase</text>
</g>
<!-- \\ClassEntropyTest&#45;&gt;\\PHPUnit_Framework_TestCase -->
<g id="edge5" class="edge"><title>\\ClassEntropyTest&#45;&gt;\\PHPUnit_Framework_TestCase</title>
<path fill="none" stroke="black" d="M536.3,-58.4595C500.342,-51.5085 453.925,-42.5357 413.943,-34.8068"/>
<polygon fill="none" stroke="black" points="414.41,-31.3323 403.927,-32.8707 413.081,-38.2051 414.41,-31.3323"/>
</g>
</g>
</svg>
