<?xml version="1.0" encoding="UTF-8" standalone="no"?>
<!DOCTYPE svg PUBLIC "-//W3C//DTD SVG 1.1//EN"
 "http://www.w3.org/Graphics/SVG/1.1/DTD/svg11.dtd">
<!-- Generated by graphviz version 2.28.0 (20130111.0109)
 -->
<!-- Title: G Pages: 1 -->
<svg width="466pt" height="279pt"
 viewBox="0.00 0.00 466.00 279.00" xmlns="http://www.w3.org/2000/svg" xmlns:xlink="http://www.w3.org/1999/xlink">
<g id="graph1" class="graph" transform="scale(1 1) rotate(0) translate(4 275)">
<title>G</title>
<polygon fill="white" stroke="white" points="-4,5 -4,-275 463,-275 463,5 -4,5"/>
<g id="graph2" class="cluster"><title>cluster_Global</title>
<polyline fill="none" stroke="gray" points="20,-8 438,-8 "/>
<path fill="none" stroke="gray" d="M438,-8C444,-8 450,-14 450,-20"/>
<polyline fill="none" stroke="gray" points="450,-20 450,-251 "/>
<path fill="none" stroke="gray" d="M450,-251C450,-257 444,-263 438,-263"/>
<polyline fill="none" stroke="gray" points="438,-263 20,-263 "/>
<path fill="none" stroke="gray" d="M20,-263C14,-263 8,-257 8,-251"/>
<polyline fill="none" stroke="gray" points="8,-251 8,-20 "/>
<path fill="none" stroke="gray" d="M8,-20C8,-14 14,-8 20,-8"/>
<text text-anchor="middle" x="229" y="-248" font-family="Times,serif" font-size="11.00" fill="gray">\</text>
</g>
<g id="graph3" class="cluster"><title>cluster_\stojg</title>
<polyline fill="none" stroke="gray" points="28,-16 430,-16 "/>
<path fill="none" stroke="gray" d="M430,-16C436,-16 442,-22 442,-28"/>
<polyline fill="none" stroke="gray" points="442,-28 442,-222 "/>
<path fill="none" stroke="gray" d="M442,-222C442,-228 436,-234 430,-234"/>
<polyline fill="none" stroke="gray" points="430,-234 28,-234 "/>
<path fill="none" stroke="gray" d="M28,-234C22,-234 16,-228 16,-222"/>
<polyline fill="none" stroke="gray" points="16,-222 16,-28 "/>
<path fill="none" stroke="gray" d="M16,-28C16,-22 22,-16 28,-16"/>
<text text-anchor="middle" x="229" y="-219" font-family="Times,serif" font-size="11.00" fill="gray">stojg</text>
</g>
<g id="graph4" class="cluster"><title>cluster_\stojg\crop</title>
<polyline fill="none" stroke="gray" points="36,-24 422,-24 "/>
<path fill="none" stroke="gray" d="M422,-24C428,-24 434,-30 434,-36"/>
<polyline fill="none" stroke="gray" points="434,-36 434,-193 "/>
<path fill="none" stroke="gray" d="M434,-193C434,-199 428,-205 422,-205"/>
<polyline fill="none" stroke="gray" points="422,-205 36,-205 "/>
<path fill="none" stroke="gray" d="M36,-205C30,-205 24,-199 24,-193"/>
<polyline fill="none" stroke="gray" points="24,-193 24,-36 "/>
<path fill="none" stroke="gray" d="M24,-36C24,-30 30,-24 36,-24"/>
<text text-anchor="middle" x="229" y="-190" font-family="Times,serif" font-size="11.00" fill="gray">crop</text>
</g>
<!-- \\stojg\\crop\\CropFace -->
<g id="node4" class="node"><title>\\stojg\\crop\\CropFace</title>
<polygon fill="none" stroke="black" points="425.309,-176 356.691,-176 356.691,-140 425.309,-140 425.309,-176"/>
<text text-anchor="middle" x="391" y="-153.6" font-family="Courier,monospace" font-size="11.00">CropFace</text>
</g>
<!-- \\stojg\\crop\\CropEntropy -->
<g id="node8" class="node"><title>\\stojg\\crop\\CropEntropy</title>
<polygon fill="none" stroke="black" points="280.113,-176 191.887,-176 191.887,-140 280.113,-140 280.113,-176"/>
<text text-anchor="middle" x="236" y="-153.6" font-family="Courier,monospace" font-size="11.00">CropEntropy</text>
</g>
<!-- \\stojg\\crop\\CropFace&#45;&gt;\\stojg\\crop\\CropEntropy -->
<g id="edge5" class="edge"><title>\\stojg\\crop\\CropFace&#45;&gt;\\stojg\\crop\\CropEntropy</title>
<path fill="none" stroke="black" d="M356.424,-158C337.135,-158 312.464,-158 290.558,-158"/>
<polygon fill="none" stroke="black" points="290.391,-154.5 280.391,-158 290.391,-161.5 290.391,-154.5"/>
</g>
<!-- \\stojg\\crop\\CropCenter -->
<g id="node5" class="node"><title>\\stojg\\crop\\CropCenter</title>
<polygon fill="none" stroke="black" points="277.011,-122 194.989,-122 194.989,-86 277.011,-86 277.011,-122"/>
<text text-anchor="middle" x="236" y="-99.6" font-family="Courier,monospace" font-size="11.00">CropCenter</text>
</g>
<!-- \\stojg\\crop\\Crop -->
<g id="node6" class="node"><title>\\stojg\\crop\\Crop</title>
<polygon fill="none" stroke="black" points="115.5,-122 32.5,-122 32.5,-86 115.5,-86 115.5,-122"/>
<text text-anchor="start" x="41" y="-105.5" font-family="Courier,monospace" font-size="11.00">«abstract»</text>
<text text-anchor="start" x="61" y="-94.5" font-family="Courier,monospace" font-size="11.00">Crop</text>
</g>
<!-- \\stojg\\crop\\CropCenter&#45;&gt;\\stojg\\crop\\Crop -->
<g id="edge7" class="edge"><title>\\stojg\\crop\\CropCenter&#45;&gt;\\stojg\\crop\\Crop</title>
<path fill="none" stroke="black" d="M194.625,-104C173.766,-104 148.099,-104 125.896,-104"/>
<polygon fill="none" stroke="black" points="125.64,-100.5 115.64,-104 125.64,-107.5 125.64,-100.5"/>
</g>
<!-- \\stojg\\crop\\CropBalanced -->
<g id="node7" class="node"><title>\\stojg\\crop\\CropBalanced</title>
<polygon fill="none" stroke="black" points="283.713,-68 188.287,-68 188.287,-32 283.713,-32 283.713,-68"/>
<text text-anchor="middle" x="236" y="-45.6" font-family="Courier,monospace" font-size="11.00">CropBalanced</text>
</g>
<!-- \\stojg\\crop\\CropBalanced&#45;&gt;\\stojg\\crop\\Crop -->
<g id="edge9" class="edge"><title>\\stojg\\crop\\CropBalanced&#45;&gt;\\stojg\\crop\\Crop</title>
<path fill="none" stroke="black" d="M188.291,-65.7642C168.474,-72.4524 145.34,-80.2601 125.162,-87.0702"/>
<polygon fill="none" stroke="black" points="123.877,-83.8098 115.522,-90.3239 126.116,-90.4423 123.877,-83.8098"/>
</g>
<!-- \\stojg\\crop\\CropEntropy&#45;&gt;\\stojg\\crop\\Crop -->
<g id="edge11" class="edge"><title>\\stojg\\crop\\CropEntropy&#45;&gt;\\stojg\\crop\\Crop</title>
<path fill="none" stroke="black" d="M191.702,-143.387C171.156,-136.453 146.487,-128.127 125.133,-120.92"/>
<polygon fill="none" stroke="black" points="126.176,-117.578 115.582,-117.696 123.937,-124.21 126.176,-117.578"/>
</g>
</g>
</svg>
